<?xml version="1.0" encoding="UTF-8" standalone="no"?><!DOCTYPE svg PUBLIC "-//W3C//DTD SVG 1.1//EN" "http://www.w3.org/Graphics/SVG/1.1/DTD/svg11.dtd"><svg width="100%" height="100%" viewBox="0 0 224 75" version="1.1" xmlns="http://www.w3.org/2000/svg" xmlns:xlink="http://www.w3.org/1999/xlink" xml:space="preserve" xmlns:serif="http://www.serif.com/" style="fill-rule:evenodd;clip-rule:evenodd;stroke-linecap:round;stroke-miterlimit:2;"><g transform="matrix(44.444444,0,0,44.444444,18.996394,53.994858)"><path d="M0.066,-0l0,-0.73l0.235,0c0.074,0 0.133,0.017 0.177,0.05c0.044,0.034 0.066,0.079 0.066,0.137c0,0.032 -0.007,0.06 -0.023,0.084c-0.015,0.024 -0.035,0.042 -0.06,0.056c-0.025,0.013 -0.052,0.02 -0.082,0.02l0,0.003c0.033,-0.001 0.063,0.005 0.09,0.018c0.027,0.013 0.049,0.032 0.066,0.057c0.017,0.025 0.025,0.057 0.025,0.094c0,0.043 -0.01,0.08 -0.031,0.112c-0.02,0.032 -0.049,0.056 -0.086,0.073c-0.037,0.017 -0.082,0.026 -0.133,0.026l-0.244,-0Zm0.145,-0.121l0.093,0c0.032,0 0.058,-0.009 0.077,-0.026c0.019,-0.017 0.028,-0.041 0.028,-0.072c0,-0.031 -0.009,-0.055 -0.028,-0.072c-0.019,-0.018 -0.044,-0.027 -0.077,-0.027l-0.093,0l0,0.197Zm0,-0.315l0.088,0c0.029,0 0.052,-0.008 0.069,-0.023c0.017,-0.016 0.025,-0.037 0.025,-0.064c0,-0.027 -0.008,-0.048 -0.025,-0.064c-0.017,-0.015 -0.04,-0.022 -0.069,-0.022l-0.088,0l0,0.173Z" style="fill:#fff;fill-rule:nonzero;"/></g><g transform="matrix(44.444444,0,0,44.444444,45.66306,53.994858)"><path d="M0.3,0.01c-0.031,0 -0.055,-0.009 -0.073,-0.028c-0.018,-0.018 -0.028,-0.043 -0.027,-0.073c-0,-0.031 0.009,-0.056 0.027,-0.074c0.018,-0.018 0.043,-0.027 0.073,-0.027c0.031,-0 0.056,0.009 0.074,0.027c0.018,0.018 0.027,0.043 0.027,0.074c0,0.031 -0.009,0.055 -0.027,0.073c-0.018,0.018 -0.043,0.028 -0.074,0.028Z" style="fill:#fff;fill-rule:nonzero;"/></g><g transform="matrix(44.444444,0,0,44.444444,72.329727,53.994858)"><path d="M0.08,-0l0,-0.73l0.45,0l0,0.128l-0.303,0l0,0.164l0.268,0l0,0.128l-0.268,0l0,0.182l0.303,0l0,0.128l-0.45,-0Z" style="fill:#fff;fill-rule:nonzero;"/></g><g transform="matrix(44.444444,0,0,44.444444,98.996394,53.994858)"><path d="M0.3,0.01c-0.031,0 -0.055,-0.009 -0.073,-0.028c-0.018,-0.018 -0.028,-0.043 -0.027,-0.073c-0,-0.031 0.009,-0.056 0.027,-0.074c0.018,-0.018 0.043,-0.027 0.073,-0.027c0.031,-0 0.056,0.009 0.074,0.027c0.018,0.018 0.027,0.043 0.027,0.074c0,0.031 -0.009,0.055 -0.027,0.073c-0.018,0.018 -0.043,0.028 -0.074,0.028Z" style="fill:#fff;fill-rule:nonzero;"/></g><g transform="matrix(44.444444,0,0,44.444444,125.66306,53.994858)"><path d="M0.042,-0l0,-0.73l0.169,0l0.067,0.23c0.007,0.024 0.013,0.045 0.016,0.063c0.004,0.018 0.006,0.031 0.007,0.038c0.001,-0.007 0.003,-0.02 0.007,-0.038c0.004,-0.018 0.009,-0.039 0.016,-0.063l0.066,-0.23l0.169,0l0,0.73l-0.137,-0l0,-0.2c0,-0.037 0.001,-0.075 0.003,-0.115c0.002,-0.04 0.004,-0.08 0.007,-0.12c0.003,-0.04 0.006,-0.077 0.009,-0.112c0.003,-0.035 0.006,-0.066 0.009,-0.092l-0.084,0.33l-0.127,0l-0.088,-0.33c0.003,0.025 0.007,0.054 0.01,0.089c0.003,0.034 0.007,0.071 0.01,0.111c0.003,0.04 0.006,0.08 0.007,0.121c0.002,0.041 0.003,0.081 0.003,0.119l0,0.2l-0.137,-0Z" style="fill:#fff;fill-rule:nonzero;"/></g><g transform="matrix(44.444444,0,0,44.444444,152.329727,53.994858)"><path d="M0.3,0.01c-0.031,0 -0.055,-0.009 -0.073,-0.028c-0.018,-0.018 -0.028,-0.043 -0.027,-0.073c-0,-0.031 0.009,-0.056 0.027,-0.074c0.018,-0.018 0.043,-0.027 0.073,-0.027c0.031,-0 0.056,0.009 0.074,0.027c0.018,0.018 0.027,0.043 0.027,0.074c0,0.031 -0.009,0.055 -0.027,0.073c-0.018,0.018 -0.043,0.028 -0.074,0.028Z" style="fill:#fff;fill-rule:nonzero;"/></g><g transform="matrix(44.444444,0,0,44.444444,178.996394,53.994858)"><path d="M0.3,0.01c-0.051,0 -0.096,-0.009 -0.134,-0.026c-0.038,-0.017 -0.067,-0.042 -0.088,-0.073c-0.021,-0.031 -0.031,-0.068 -0.031,-0.111l0.15,0c-0,0.025 0.01,0.044 0.028,0.058c0.019,0.014 0.045,0.022 0.077,0.022c0.031,0 0.056,-0.007 0.074,-0.021c0.018,-0.014 0.027,-0.033 0.027,-0.058c0,-0.021 -0.007,-0.04 -0.02,-0.055c-0.013,-0.015 -0.032,-0.026 -0.056,-0.031l-0.074,-0.017c-0.062,-0.015 -0.11,-0.042 -0.145,-0.082c-0.034,-0.04 -0.051,-0.088 -0.051,-0.146c0,-0.043 0.01,-0.08 0.03,-0.111c0.02,-0.032 0.048,-0.056 0.084,-0.074c0.036,-0.017 0.079,-0.026 0.128,-0.026c0.075,0 0.134,0.019 0.178,0.055c0.044,0.037 0.066,0.087 0.066,0.149l-0.15,0c0,-0.023 -0.008,-0.042 -0.025,-0.055c-0.016,-0.013 -0.04,-0.02 -0.071,-0.02c-0.029,0 -0.051,0.006 -0.066,0.019c-0.015,0.013 -0.023,0.031 -0.023,0.055c-0,0.021 0.006,0.04 0.018,0.055c0.012,0.015 0.03,0.025 0.053,0.03l0.078,0.018c0.065,0.015 0.114,0.041 0.147,0.08c0.033,0.038 0.05,0.087 0.05,0.146c0,0.043 -0.011,0.08 -0.032,0.113c-0.021,0.033 -0.05,0.058 -0.088,0.076c-0.038,0.018 -0.082,0.027 -0.134,0.027Z" style="fill:#fff;fill-rule:nonzero;"/></g><g transform="matrix(44.444444,0,0,44.444444,205.66306,53.994858)"></g><rect x="10.916" y="11.517" width="202.385" height="53.555" style="fill:none;stroke:#fff;stroke-width:3.89px;"/></svg>